<mxfile host="drawio-plugin" modified="2024-03-25T09:09:18.631Z" agent="5.0 (Windows NT 10.0; Win64; x64) AppleWebKit/537.36 (KHTML, like Gecko) Chrome/111.0.0.0 Safari/537.36" etag="rOq9dOEOzs4MM_jLbORW" version="20.5.3" type="embed"><diagram id="23iRSUPoRavnBvh4doch" name="Page-1"><mxGraphModel dx="956" dy="489" grid="1" gridSize="10" guides="1" tooltips="1" connect="1" arrows="1" fold="1" page="1" pageScale="1" pageWidth="827" pageHeight="1169" math="0" shadow="0"><root><mxCell id="0"/><mxCell id="1" parent="0"/><mxCell id="6" value="Node" style="rounded=1;arcSize=10;whiteSpace=wrap;html=1;align=center;" vertex="1" parent="1"><mxGeometry x="160" y="120" width="80" height="40" as="geometry"/></mxCell><mxCell id="7" value="name" style="ellipse;whiteSpace=wrap;html=1;align=center;" vertex="1" parent="1"><mxGeometry x="60" y="60" width="80" height="40" as="geometry"/></mxCell><mxCell id="8" value="id" style="ellipse;whiteSpace=wrap;html=1;align=center;fontStyle=4;" vertex="1" parent="1"><mxGeometry x="160" y="40" width="80" height="40" as="geometry"/></mxCell><mxCell id="9" value="type" style="ellipse;whiteSpace=wrap;html=1;align=center;" vertex="1" parent="1"><mxGeometry x="30" y="120" width="80" height="40" as="geometry"/></mxCell><mxCell id="14" value="" style="edgeStyle=orthogonalEdgeStyle;rounded=0;orthogonalLoop=1;jettySize=auto;html=1;" edge="1" parent="1" source="10" target="6"><mxGeometry relative="1" as="geometry"/></mxCell><mxCell id="10" value="tags" style="ellipse;whiteSpace=wrap;html=1;align=center;" vertex="1" parent="1"><mxGeometry x="160" y="200" width="80" height="40" as="geometry"/></mxCell><mxCell id="11" value="" style="endArrow=classic;html=1;rounded=0;exitX=0.5;exitY=1;exitDx=0;exitDy=0;entryX=0.5;entryY=0;entryDx=0;entryDy=0;" edge="1" parent="1" source="8" target="6"><mxGeometry width="50" height="50" relative="1" as="geometry"><mxPoint x="420" y="240" as="sourcePoint"/><mxPoint x="470" y="190" as="targetPoint"/></mxGeometry></mxCell><mxCell id="12" value="" style="endArrow=classic;html=1;rounded=0;exitX=1;exitY=1;exitDx=0;exitDy=0;entryX=0;entryY=0;entryDx=0;entryDy=0;" edge="1" parent="1" source="7" target="6"><mxGeometry width="50" height="50" relative="1" as="geometry"><mxPoint x="140" y="150" as="sourcePoint"/><mxPoint x="190" y="100" as="targetPoint"/></mxGeometry></mxCell><mxCell id="13" value="" style="endArrow=classic;html=1;rounded=0;exitX=1;exitY=0.5;exitDx=0;exitDy=0;entryX=0;entryY=0.5;entryDx=0;entryDy=0;" edge="1" parent="1" source="9" target="6"><mxGeometry width="50" height="50" relative="1" as="geometry"><mxPoint x="320" y="220" as="sourcePoint"/><mxPoint x="370" y="170" as="targetPoint"/></mxGeometry></mxCell><mxCell id="15" value="Service" style="rounded=1;arcSize=10;whiteSpace=wrap;html=1;align=center;" vertex="1" parent="1"><mxGeometry x="480" y="120" width="80" height="40" as="geometry"/></mxCell><mxCell id="16" value="部署于/部署" style="shape=rhombus;perimeter=rhombusPerimeter;whiteSpace=wrap;html=1;align=center;" vertex="1" parent="1"><mxGeometry x="280" y="120" width="80" height="40" as="geometry"/></mxCell><mxCell id="21" value="" style="endArrow=none;html=1;rounded=0;exitX=1;exitY=0.5;exitDx=0;exitDy=0;entryX=0;entryY=0.5;entryDx=0;entryDy=0;" edge="1" parent="1" source="6" target="16"><mxGeometry width="50" height="50" relative="1" as="geometry"><mxPoint x="290" y="300" as="sourcePoint"/><mxPoint x="340" y="250" as="targetPoint"/></mxGeometry></mxCell><mxCell id="22" value="" style="endArrow=none;html=1;rounded=0;exitX=1;exitY=0.5;exitDx=0;exitDy=0;entryX=0;entryY=0.5;entryDx=0;entryDy=0;" edge="1" parent="1" source="16" target="15"><mxGeometry width="50" height="50" relative="1" as="geometry"><mxPoint x="570" y="110" as="sourcePoint"/><mxPoint x="620" y="60" as="targetPoint"/></mxGeometry></mxCell><mxCell id="23" value="id" style="ellipse;whiteSpace=wrap;html=1;align=center;fontStyle=4;" vertex="1" parent="1"><mxGeometry x="380" y="70" width="80" height="40" as="geometry"/></mxCell><mxCell id="26" value="name" style="ellipse;whiteSpace=wrap;html=1;align=center;" vertex="1" parent="1"><mxGeometry x="430" y="10" width="80" height="40" as="geometry"/></mxCell><mxCell id="28" value="status&lt;br&gt;http/GRPC" style="ellipse;whiteSpace=wrap;html=1;align=center;" vertex="1" parent="1"><mxGeometry x="580" y="170" width="80" height="40" as="geometry"/></mxCell><mxCell id="29" value="tags" style="ellipse;whiteSpace=wrap;html=1;align=center;" vertex="1" parent="1"><mxGeometry x="380" y="170" width="80" height="40" as="geometry"/></mxCell><mxCell id="31" value="status" style="ellipse;whiteSpace=wrap;html=1;align=center;" vertex="1" parent="1"><mxGeometry x="60" y="180" width="80" height="40" as="geometry"/></mxCell><mxCell id="32" value="" style="endArrow=classic;html=1;rounded=0;exitX=1;exitY=0;exitDx=0;exitDy=0;entryX=0;entryY=1;entryDx=0;entryDy=0;" edge="1" parent="1" source="31" target="6"><mxGeometry width="50" height="50" relative="1" as="geometry"><mxPoint x="420" y="240" as="sourcePoint"/><mxPoint x="470" y="190" as="targetPoint"/></mxGeometry></mxCell><mxCell id="33" value="type" style="ellipse;whiteSpace=wrap;html=1;align=center;" vertex="1" parent="1"><mxGeometry x="580" y="70" width="80" height="40" as="geometry"/></mxCell><mxCell id="36" value="" style="endArrow=classic;html=1;rounded=0;exitX=1;exitY=1;exitDx=0;exitDy=0;entryX=0;entryY=0;entryDx=0;entryDy=0;" edge="1" parent="1" source="23" target="15"><mxGeometry width="50" height="50" relative="1" as="geometry"><mxPoint x="450" y="150" as="sourcePoint"/><mxPoint x="500" y="100" as="targetPoint"/></mxGeometry></mxCell><mxCell id="37" value="" style="endArrow=classic;html=1;rounded=0;exitX=1;exitY=0;exitDx=0;exitDy=0;entryX=0;entryY=1;entryDx=0;entryDy=0;" edge="1" parent="1" source="29" target="15"><mxGeometry width="50" height="50" relative="1" as="geometry"><mxPoint x="490" y="240" as="sourcePoint"/><mxPoint x="540" y="190" as="targetPoint"/></mxGeometry></mxCell><mxCell id="39" value="" style="endArrow=classic;html=1;rounded=0;exitX=0;exitY=1;exitDx=0;exitDy=0;entryX=1;entryY=0;entryDx=0;entryDy=0;" edge="1" parent="1" source="33" target="15"><mxGeometry width="50" height="50" relative="1" as="geometry"><mxPoint x="670" y="100" as="sourcePoint"/><mxPoint x="720" y="50" as="targetPoint"/></mxGeometry></mxCell><mxCell id="40" value="" style="endArrow=classic;html=1;rounded=0;exitX=0;exitY=0;exitDx=0;exitDy=0;entryX=1;entryY=1;entryDx=0;entryDy=0;" edge="1" parent="1" source="28" target="15"><mxGeometry width="50" height="50" relative="1" as="geometry"><mxPoint x="730" y="210" as="sourcePoint"/><mxPoint x="780" y="160" as="targetPoint"/></mxGeometry></mxCell><mxCell id="42" value="EndPoint" style="rounded=1;arcSize=10;whiteSpace=wrap;html=1;align=center;" vertex="1" parent="1"><mxGeometry x="800" y="120" width="80" height="40" as="geometry"/></mxCell><mxCell id="44" value="拥有" style="shape=rhombus;perimeter=rhombusPerimeter;whiteSpace=wrap;html=1;align=center;" vertex="1" parent="1"><mxGeometry x="680" y="120" width="80" height="40" as="geometry"/></mxCell><mxCell id="45" value="" style="endArrow=none;html=1;rounded=0;exitX=1;exitY=0.5;exitDx=0;exitDy=0;entryX=0;entryY=0.5;entryDx=0;entryDy=0;" edge="1" parent="1" source="15" target="44"><mxGeometry width="50" height="50" relative="1" as="geometry"><mxPoint x="610" y="160" as="sourcePoint"/><mxPoint x="660" y="110" as="targetPoint"/></mxGeometry></mxCell><mxCell id="46" value="" style="endArrow=none;html=1;rounded=0;exitX=1;exitY=0.5;exitDx=0;exitDy=0;entryX=0;entryY=0.5;entryDx=0;entryDy=0;" edge="1" parent="1" source="44" target="42"><mxGeometry width="50" height="50" relative="1" as="geometry"><mxPoint x="770" y="79" as="sourcePoint"/><mxPoint x="890" y="79" as="targetPoint"/></mxGeometry></mxCell><mxCell id="58" value="" style="edgeStyle=orthogonalEdgeStyle;rounded=0;orthogonalLoop=1;jettySize=auto;html=1;" edge="1" parent="1" source="47" target="42"><mxGeometry relative="1" as="geometry"/></mxCell><mxCell id="47" value="id" style="ellipse;whiteSpace=wrap;html=1;align=center;fontStyle=4;" vertex="1" parent="1"><mxGeometry x="800" y="40" width="80" height="40" as="geometry"/></mxCell><mxCell id="50" value="name" style="ellipse;whiteSpace=wrap;html=1;align=center;" vertex="1" parent="1"><mxGeometry x="920" y="80" width="80" height="40" as="geometry"/></mxCell><mxCell id="59" value="" style="edgeStyle=orthogonalEdgeStyle;rounded=0;orthogonalLoop=1;jettySize=auto;html=1;" edge="1" parent="1" source="51" target="42"><mxGeometry relative="1" as="geometry"/></mxCell><mxCell id="51" value="type" style="ellipse;whiteSpace=wrap;html=1;align=center;" vertex="1" parent="1"><mxGeometry x="800" y="200" width="80" height="40" as="geometry"/></mxCell><mxCell id="53" value="latency" style="ellipse;whiteSpace=wrap;html=1;align=center;" vertex="1" parent="1"><mxGeometry x="920" y="160" width="80" height="40" as="geometry"/></mxCell><mxCell id="54" value="1" style="text;html=1;align=center;verticalAlign=middle;resizable=0;points=[];autosize=1;strokeColor=none;fillColor=none;" vertex="1" parent="1"><mxGeometry x="245" y="115" width="30" height="30" as="geometry"/></mxCell><mxCell id="55" value="n" style="text;html=1;align=center;verticalAlign=middle;resizable=0;points=[];autosize=1;strokeColor=none;fillColor=none;" vertex="1" parent="1"><mxGeometry x="405" y="115" width="30" height="30" as="geometry"/></mxCell><mxCell id="56" value="1" style="text;html=1;align=center;verticalAlign=middle;resizable=0;points=[];autosize=1;strokeColor=none;fillColor=none;" vertex="1" parent="1"><mxGeometry x="615" y="115" width="30" height="30" as="geometry"/></mxCell><mxCell id="57" value="n" style="text;html=1;align=center;verticalAlign=middle;resizable=0;points=[];autosize=1;strokeColor=none;fillColor=none;" vertex="1" parent="1"><mxGeometry x="765" y="115" width="30" height="30" as="geometry"/></mxCell><mxCell id="60" value="" style="endArrow=classic;html=1;rounded=0;exitX=0;exitY=0.5;exitDx=0;exitDy=0;entryX=1;entryY=1;entryDx=0;entryDy=0;" edge="1" parent="1" source="53" target="42"><mxGeometry width="50" height="50" relative="1" as="geometry"><mxPoint x="920" y="320" as="sourcePoint"/><mxPoint x="970" y="270" as="targetPoint"/></mxGeometry></mxCell><mxCell id="61" value="" style="endArrow=classic;html=1;rounded=0;exitX=0;exitY=0.5;exitDx=0;exitDy=0;entryX=1;entryY=0;entryDx=0;entryDy=0;" edge="1" parent="1" source="50" target="42"><mxGeometry width="50" height="50" relative="1" as="geometry"><mxPoint x="920" y="90" as="sourcePoint"/><mxPoint x="970" y="40" as="targetPoint"/></mxGeometry></mxCell><mxCell id="62" value="latecy" style="ellipse;whiteSpace=wrap;html=1;align=center;" vertex="1" parent="1"><mxGeometry x="530" y="10" width="80" height="40" as="geometry"/></mxCell><mxCell id="63" value="" style="endArrow=classic;html=1;rounded=0;exitX=0.5;exitY=1;exitDx=0;exitDy=0;entryX=0.25;entryY=0;entryDx=0;entryDy=0;" edge="1" parent="1" source="26" target="15"><mxGeometry width="50" height="50" relative="1" as="geometry"><mxPoint x="470" y="100" as="sourcePoint"/><mxPoint x="520" y="50" as="targetPoint"/></mxGeometry></mxCell><mxCell id="64" value="" style="endArrow=classic;html=1;rounded=0;exitX=0.5;exitY=1;exitDx=0;exitDy=0;entryX=0.75;entryY=0;entryDx=0;entryDy=0;" edge="1" parent="1" source="62" target="15"><mxGeometry width="50" height="50" relative="1" as="geometry"><mxPoint x="660" y="60" as="sourcePoint"/><mxPoint x="710" y="10" as="targetPoint"/></mxGeometry></mxCell><mxCell id="66" value="ServiceGroup" style="rounded=1;arcSize=10;whiteSpace=wrap;html=1;align=center;" vertex="1" parent="1"><mxGeometry x="200" y="360" width="80" height="40" as="geometry"/></mxCell><mxCell id="67" value="包含/属于" style="shape=rhombus;perimeter=rhombusPerimeter;whiteSpace=wrap;html=1;align=center;" vertex="1" parent="1"><mxGeometry x="395" y="270" width="80" height="40" as="geometry"/></mxCell><mxCell id="68" value="" style="endArrow=none;html=1;rounded=0;entryX=0.5;entryY=1;entryDx=0;entryDy=0;exitX=1;exitY=0.5;exitDx=0;exitDy=0;" edge="1" parent="1" source="66" target="67"><mxGeometry width="50" height="50" relative="1" as="geometry"><mxPoint x="280" y="370" as="sourcePoint"/><mxPoint x="330" y="320" as="targetPoint"/></mxGeometry></mxCell><mxCell id="70" value="" style="endArrow=none;html=1;rounded=0;entryX=0.25;entryY=1;entryDx=0;entryDy=0;exitX=0.5;exitY=0;exitDx=0;exitDy=0;" edge="1" parent="1" source="67" target="15"><mxGeometry width="50" height="50" relative="1" as="geometry"><mxPoint x="330" y="350" as="sourcePoint"/><mxPoint x="410" y="310" as="targetPoint"/></mxGeometry></mxCell><mxCell id="71" value="1" style="text;html=1;align=center;verticalAlign=middle;resizable=0;points=[];autosize=1;strokeColor=none;fillColor=none;" vertex="1" parent="1"><mxGeometry x="325" y="295" width="30" height="30" as="geometry"/></mxCell><mxCell id="72" value="n" style="text;html=1;align=center;verticalAlign=middle;resizable=0;points=[];autosize=1;strokeColor=none;fillColor=none;" vertex="1" parent="1"><mxGeometry x="445" y="195" width="30" height="30" as="geometry"/></mxCell><mxCell id="76" value="" style="edgeStyle=orthogonalEdgeStyle;rounded=0;orthogonalLoop=1;jettySize=auto;html=1;" edge="1" parent="1" source="73" target="66"><mxGeometry relative="1" as="geometry"/></mxCell><mxCell id="73" value="id" style="ellipse;whiteSpace=wrap;html=1;align=center;fontStyle=4;" vertex="1" parent="1"><mxGeometry x="200" y="280" width="80" height="40" as="geometry"/></mxCell><mxCell id="75" value="" style="edgeStyle=orthogonalEdgeStyle;rounded=0;orthogonalLoop=1;jettySize=auto;html=1;" edge="1" parent="1" source="74" target="66"><mxGeometry relative="1" as="geometry"/></mxCell><mxCell id="74" value="name" style="ellipse;whiteSpace=wrap;html=1;align=center;" vertex="1" parent="1"><mxGeometry x="200" y="440" width="80" height="40" as="geometry"/></mxCell><mxCell id="77" value="Metrics" style="rounded=1;arcSize=10;whiteSpace=wrap;html=1;align=center;" vertex="1" parent="1"><mxGeometry x="480" y="360" width="80" height="40" as="geometry"/></mxCell><mxCell id="78" value="Trace" style="rounded=1;arcSize=10;whiteSpace=wrap;html=1;align=center;" vertex="1" parent="1"><mxGeometry x="720" y="360" width="80" height="40" as="geometry"/></mxCell></root></mxGraphModel></diagram></mxfile>